<?xml version="1.0" standalone="no"?>
<!DOCTYPE svg PUBLIC "-//W3C//DTD SVG 20010904//EN"
 "http://www.w3.org/TR/2001/REC-SVG-20010904/DTD/svg10.dtd">
<svg version="1.0" xmlns="http://www.w3.org/2000/svg"
 width="1090.000000pt" height="1090.000000pt" viewBox="0 0 1090.000000 1090.000000"
 preserveAspectRatio="xMidYMid meet">
<metadata>
Created by potrace 1.14, written by Peter Selinger 2001-2017
</metadata>
<g transform="translate(0.000000,1090.000000) scale(0.100000,-0.100000)"
fill="#000000" stroke="none">
<path d="M66 5458 c1 -975 2 -1775 3 -1778 0 -3 222 -6 491 -6 l490 1 0 1777
0 1778 -493 0 -492 0 1 -1772z"/>
<path d="M3750 7220 c0 -9 175 -453 214 -545 7 -16 44 -105 81 -197 l68 -168
-21 -52 c-11 -29 -40 -100 -65 -158 -24 -58 -86 -204 -137 -325 -51 -121 -103
-244 -116 -273 -13 -29 -24 -55 -24 -57 0 -3 -9 -24 -19 -48 -11 -23 -50 -114
-86 -202 -71 -170 -118 -281 -140 -330 -55 -127 -174 -414 -174 -420 0 -3 -7
-18 -15 -33 -38 -74 -309 -722 -303 -728 3 -3 8 5 12 18 4 13 18 46 30 73 28
62 73 168 215 505 62 146 121 284 131 307 11 23 19 44 19 47 0 3 11 29 24 58
13 29 54 125 90 213 37 88 73 174 81 190 7 17 75 176 150 355 75 179 150 357
167 395 16 39 33 79 38 90 4 11 15 37 24 57 35 80 108 254 113 271 8 25 17 21
30 -12 11 -31 21 -4 -162 -436 -35 -82 -105 -246 -154 -363 -50 -118 -91 -216
-91 -218 0 -2 -11 -27 -24 -56 -42 -95 -66 -150 -66 -156 0 -19 24 29 70 138
54 129 81 192 106 247 8 17 14 34 14 38 0 3 9 27 21 53 52 116 88 201 149 347
23 55 48 114 55 130 7 17 19 46 27 65 73 173 72 171 86 132 8 -24 5 -40 -20
-98 -16 -38 -33 -78 -37 -89 -45 -108 -66 -156 -82 -192 -10 -24 -19 -45 -19
-48 0 -3 -16 -39 -35 -81 -19 -41 -35 -81 -35 -88 0 -6 -6 -20 -13 -31 -8 -11
-29 -56 -46 -100 -18 -44 -35 -86 -39 -94 -3 -8 -1 -12 5 -8 5 4 18 28 28 54
10 26 31 76 47 111 15 34 28 65 28 68 0 3 31 76 68 162 38 86 90 210 117 275
l48 118 14 -33 c13 -31 11 -39 -53 -193 -65 -155 -88 -208 -133 -307 -11 -26
-21 -50 -21 -54 0 -3 -11 -30 -25 -60 -14 -30 -25 -57 -25 -59 0 -2 -12 -30
-26 -62 -14 -32 -30 -68 -35 -80 -13 -32 -25 -61 -48 -115 -12 -26 -21 -49
-21 -53 0 -5 -10 -28 -61 -140 -55 -123 -109 -258 -105 -263 3 -2 10 6 15 19
5 13 47 114 94 224 47 110 110 261 142 335 31 74 69 164 85 200 15 36 47 110
70 165 23 55 48 114 55 130 43 96 95 225 95 234 0 23 21 20 30 -5 11 -28 10
-30 -39 -149 -5 -11 -21 -49 -36 -85 -15 -36 -35 -83 -44 -105 -10 -22 -34
-78 -54 -125 -74 -175 -218 -516 -232 -545 -7 -16 -34 -81 -59 -143 -26 -62
-57 -137 -70 -165 -13 -29 -47 -108 -76 -177 -28 -69 -61 -145 -72 -169 -10
-24 -28 -66 -39 -94 -11 -28 -29 -71 -41 -96 -67 -147 -200 -473 -194 -478 2
-2 22 40 44 94 22 54 49 116 58 138 10 22 18 42 19 45 1 3 6 16 12 30 45 108
68 161 83 195 10 22 37 85 60 140 39 92 83 196 115 270 7 17 43 102 80 190 37
88 76 180 87 205 12 25 29 65 39 90 17 44 76 185 103 245 8 17 51 118 96 225
45 107 90 213 99 235 10 22 30 70 46 108 15 37 31 67 36 67 4 0 10 -13 14 -29
4 -21 -2 -49 -23 -98 -16 -37 -67 -156 -112 -263 -45 -107 -115 -271 -155
-365 -40 -93 -103 -242 -140 -330 -36 -88 -72 -173 -80 -190 -7 -16 -32 -75
-55 -130 -23 -55 -54 -128 -71 -163 -16 -35 -29 -69 -29 -75 0 -7 -4 -17 -8
-23 -5 -5 -15 -25 -22 -44 -7 -19 -23 -58 -35 -85 -48 -108 -96 -228 -92 -231
2 -2 18 31 36 74 19 42 41 95 51 117 10 22 34 81 55 130 20 50 45 108 55 130
9 22 34 81 55 130 21 50 52 124 70 165 18 41 49 116 69 165 20 50 41 99 46
110 25 56 63 142 86 198 14 34 32 76 39 92 7 17 25 59 40 95 15 36 36 85 47
109 10 24 28 67 39 95 11 28 27 65 34 81 7 17 28 64 45 105 18 41 39 92 48
113 9 20 18 37 22 37 3 0 10 -13 16 -28 11 -29 11 -31 -34 -132 -13 -30 -33
-77 -44 -105 -11 -27 -26 -63 -33 -80 -21 -48 -80 -185 -110 -255 -16 -36 -43
-99 -60 -140 -18 -41 -45 -104 -60 -140 -15 -36 -31 -74 -36 -85 -5 -11 -29
-69 -55 -130 -25 -60 -52 -123 -59 -140 -30 -66 -55 -126 -104 -245 -29 -69
-58 -138 -66 -155 -13 -30 -144 -337 -191 -450 -14 -33 -30 -70 -36 -82 -6
-13 -9 -25 -6 -28 3 -3 38 72 78 167 60 144 142 338 205 483 7 17 30 71 50
120 21 50 50 118 66 153 16 34 29 65 29 67 0 2 11 28 24 57 13 29 47 109 76
178 59 142 65 157 110 260 17 41 38 89 45 105 7 17 45 107 85 200 40 94 85
197 100 230 15 33 31 71 35 84 l8 25 12 -30 c9 -23 9 -36 0 -64 -10 -27 -170
-406 -294 -695 -61 -141 -76 -176 -92 -212 -10 -24 -19 -46 -19 -49 0 -4 -12
-32 -27 -63 -23 -49 -91 -208 -158 -371 -12 -30 -36 -86 -52 -125 -133 -313
-178 -417 -199 -464 -13 -30 -22 -56 -19 -59 2 -3 11 10 19 29 8 19 44 104 81
189 37 85 77 180 89 210 13 30 30 72 39 93 32 71 46 103 107 252 34 83 73 175
87 205 14 30 41 93 60 140 30 71 153 362 198 465 7 17 32 75 55 130 23 55 51
118 60 140 10 22 33 76 51 120 l33 79 13 -31 c14 -35 15 -30 -53 -188 -20 -44
-40 -91 -46 -105 -7 -14 -12 -27 -12 -30 -1 -3 -57 -135 -125 -293 -68 -158
-121 -291 -117 -294 3 -3 8 3 12 13 4 10 14 37 24 59 10 22 39 92 66 155 26
63 49 117 51 119 2 3 11 -4 21 -14 17 -18 16 -23 -31 -135 -26 -63 -52 -124
-57 -135 -4 -11 -19 -45 -33 -75 -14 -30 -35 -80 -47 -110 -12 -30 -32 -78
-46 -108 -13 -29 -24 -55 -24 -57 0 -2 -12 -30 -26 -62 -14 -32 -32 -74 -40
-93 -9 -19 -19 -44 -24 -55 -5 -11 -41 -96 -80 -189 -39 -93 -80 -189 -91
-215 -11 -25 -24 -55 -28 -66 -4 -11 -20 -46 -34 -78 -15 -31 -27 -60 -27 -64
0 -21 24 27 79 157 34 80 68 159 76 175 7 17 43 102 80 190 93 223 123 292
151 353 13 29 24 55 24 57 0 2 11 28 24 57 13 29 40 94 60 143 21 50 44 104
51 120 7 17 25 59 40 95 15 36 29 67 31 69 2 2 12 -3 23 -13 18 -17 18 -18 -5
-66 -13 -28 -24 -53 -24 -56 0 -3 -6 -20 -14 -37 -17 -37 -96 -225 -191 -452
-37 -88 -73 -173 -80 -190 -8 -16 -25 -56 -39 -88 -14 -32 -26 -60 -26 -62 0
-4 -79 -192 -105 -250 -16 -37 -64 -152 -76 -182 -5 -13 -5 -23 0 -23 5 0 12
12 15 26 4 14 16 47 28 73 28 63 39 90 88 206 98 234 183 434 206 483 13 29
24 55 24 58 0 6 125 304 156 371 8 17 14 33 14 36 0 3 13 35 30 72 27 60 31
65 50 55 25 -14 25 -18 -4 -82 -13 -29 -36 -82 -51 -118 -15 -36 -35 -83 -46
-106 -10 -22 -28 -65 -39 -95 -12 -30 -28 -67 -35 -84 -7 -16 -34 -79 -60
-140 -25 -60 -52 -123 -60 -140 -107 -241 -294 -699 -241 -590 32 65 76 167
76 176 0 5 13 37 29 71 36 77 47 103 151 348 45 107 90 213 100 236 11 22 28
65 40 95 11 30 27 68 35 84 37 82 135 316 135 325 0 14 13 13 33 -2 15 -12 13
-21 -24 -108 -22 -52 -46 -108 -54 -125 -7 -16 -35 -82 -60 -145 -26 -63 -55
-133 -65 -155 -10 -22 -44 -101 -75 -175 -31 -74 -63 -148 -70 -165 -7 -16
-41 -95 -74 -175 -34 -80 -66 -154 -71 -165 -41 -90 -69 -166 -57 -155 3 3 33
71 67 150 34 80 67 159 75 175 7 17 43 102 80 190 37 88 75 178 85 200 10 22
37 85 60 140 23 55 50 119 61 142 10 24 19 45 19 49 0 3 14 35 30 71 17 35 30
67 30 69 0 3 11 31 25 62 51 115 48 111 73 101 20 -7 21 -12 12 -30 -7 -11 -9
-23 -6 -26 3 -3 10 6 15 20 7 19 15 24 30 20 12 -3 21 -11 21 -17 0 -10 -49
-133 -84 -211 -8 -16 -33 -75 -56 -130 -44 -106 -53 -126 -94 -218 -14 -32
-26 -60 -26 -63 0 -3 -9 -24 -19 -47 -10 -23 -31 -71 -46 -107 -29 -70 -61
-143 -75 -175 -46 -100 -149 -350 -145 -353 3 -4 55 103 55 114 0 2 11 27 24
56 13 29 67 157 121 283 100 235 117 275 154 357 11 26 21 50 21 53 0 5 9 26
59 138 12 27 35 81 50 120 16 40 41 98 55 130 24 51 29 56 46 47 22 -12 22
-13 -29 -123 -17 -37 -31 -70 -31 -74 0 -5 -53 -132 -100 -238 -10 -22 -46
-107 -80 -190 -34 -82 -70 -168 -80 -190 -10 -22 -30 -69 -45 -105 -15 -36
-35 -83 -45 -105 -9 -22 -34 -80 -54 -130 -20 -49 -43 -102 -51 -117 -8 -16
-10 -28 -6 -28 5 0 14 15 21 33 7 17 21 50 31 73 10 22 27 63 38 91 19 48 28
69 80 185 11 26 21 50 21 53 0 2 11 28 25 57 26 57 205 480 237 563 11 28 33
79 49 115 16 36 35 78 42 93 11 25 14 27 32 13 17 -12 18 -17 8 -37 -7 -13
-22 -48 -33 -78 -12 -30 -29 -73 -39 -95 -10 -23 -28 -62 -40 -88 -11 -26 -21
-50 -21 -53 0 -3 -12 -32 -26 -62 -14 -31 -48 -111 -75 -177 -28 -67 -68 -161
-89 -211 -21 -49 -57 -135 -80 -190 -23 -55 -50 -118 -61 -141 -29 -65 -60
-146 -57 -150 2 -1 25 48 52 109 26 62 61 141 77 176 16 35 29 67 29 72 0 5
14 39 31 76 17 38 37 84 44 103 7 19 22 55 33 80 11 25 33 74 47 110 15 36 35
83 45 105 9 22 48 112 85 200 99 237 98 235 104 235 3 0 13 -6 22 -13 15 -12
13 -23 -30 -127 -46 -111 -208 -493 -236 -555 -7 -16 -45 -106 -85 -200 -40
-93 -92 -214 -115 -267 -24 -54 -40 -98 -36 -98 5 0 45 89 91 198 75 177 151
356 200 467 10 22 66 155 126 296 98 232 110 255 126 245 10 -6 18 -14 18 -18
0 -4 -26 -70 -59 -145 -32 -76 -96 -226 -141 -333 -85 -202 -115 -271 -130
-305 -13 -28 -150 -355 -161 -382 -5 -14 -5 -23 1 -23 6 0 10 5 10 10 0 6 50
128 111 271 60 144 114 272 120 285 5 14 20 49 34 79 13 29 45 105 71 167 25
62 57 138 71 168 14 30 36 83 50 118 29 73 40 82 53 48 10 -28 3 -58 -30 -131
-13 -27 -50 -113 -82 -190 -33 -77 -66 -153 -74 -169 -8 -16 -14 -33 -14 -37
0 -4 -16 -41 -35 -81 -35 -75 -125 -285 -125 -293 0 -3 -13 -33 -29 -67 -53
-116 -74 -169 -69 -173 4 -4 40 76 148 330 4 11 17 41 29 67 12 26 21 50 21
52 0 2 15 37 34 78 18 40 40 91 49 113 8 22 26 65 40 95 14 30 53 121 88 203
35 81 67 147 71 147 17 0 19 -52 4 -90 -19 -47 -20 -53 -6 -45 6 3 10 14 10
24 0 10 6 23 13 29 9 8 15 4 23 -13 12 -24 18 -7 -298 -760 -28 -66 -61 -144
-74 -174 -13 -30 -22 -56 -19 -59 2 -3 14 17 26 44 11 27 24 58 29 69 5 11 32
76 60 145 29 69 58 139 65 155 7 17 25 59 40 95 26 62 37 89 69 163 8 17 31
73 51 122 69 169 66 165 84 114 6 -19 7 -36 1 -47 -14 -25 -60 -132 -60 -139
0 -3 -15 -40 -34 -82 -18 -42 -57 -132 -85 -201 -29 -69 -61 -143 -71 -165
-27 -58 -110 -263 -110 -270 0 -16 19 8 25 32 3 15 15 45 25 68 10 22 50 117
89 210 118 278 122 289 136 320 7 17 30 71 51 120 45 109 50 116 64 81 9 -23
1 -48 -56 -184 -36 -86 -71 -170 -78 -187 -8 -16 -37 -86 -65 -155 -60 -144
-61 -147 -94 -220 -27 -60 -45 -116 -29 -90 5 8 33 71 62 140 29 69 63 148 76
176 13 28 24 54 24 58 0 4 9 26 19 49 10 23 31 71 46 107 14 36 34 83 44 105
10 22 29 66 42 99 l24 58 13 -32 c12 -29 10 -39 -19 -109 -17 -42 -44 -104
-60 -139 -16 -35 -29 -66 -29 -68 0 -3 -9 -24 -19 -47 -10 -23 -35 -82 -56
-132 -20 -49 -43 -103 -50 -120 -41 -92 -55 -129 -54 -144 0 -13 1 -14 6 -1 3
8 55 132 116 275 60 143 126 300 145 348 34 83 37 87 49 65 7 -13 12 -30 13
-38 0 -13 -101 -258 -175 -425 -7 -16 -25 -59 -40 -95 -15 -36 -34 -80 -42
-97 -7 -18 -9 -33 -4 -33 5 0 12 11 15 25 4 14 17 49 31 78 13 28 42 97 65
152 23 55 49 118 59 140 10 22 35 82 57 132 21 51 42 93 46 93 3 0 10 -14 13
-31 5 -22 1 -45 -13 -78 -12 -25 -35 -77 -51 -114 -17 -38 -31 -71 -31 -73 0
-4 -17 -45 -50 -119 -42 -94 -82 -196 -78 -200 2 -3 35 68 73 158 38 89 78
185 90 212 12 28 32 76 45 107 12 32 26 58 30 58 5 0 12 -12 17 -27 10 -30 9
-35 -73 -218 -14 -33 -41 -96 -59 -140 -18 -44 -40 -97 -50 -119 -9 -21 -14
-40 -12 -42 2 -2 18 31 36 74 19 42 41 95 51 117 9 22 41 95 70 163 l54 123
13 -31 c11 -27 10 -37 -7 -73 -56 -124 -156 -367 -150 -367 7 0 18 23 85 185
25 61 56 132 68 159 l22 48 12 -30 c12 -29 8 -42 -57 -194 -39 -89 -69 -166
-67 -172 2 -5 16 22 31 60 16 38 37 87 46 109 10 22 28 64 41 93 22 53 23 53
35 30 19 -34 18 -38 -36 -160 -28 -61 -49 -115 -48 -120 2 -6 25 40 52 101 26
61 51 111 55 111 5 0 12 -10 18 -22 8 -18 3 -37 -22 -93 -48 -106 -52 -132 -4
-35 l41 85 13 -30 c10 -25 10 -36 -2 -65 -24 -57 -25 -79 -1 -30 l21 45 13
-30 c6 -16 10 -33 8 -36 -2 -4 2 -9 9 -11 6 -2 253 -4 547 -4 480 1 535 3 532
17 -1 8 -86 222 -188 475 -102 252 -361 898 -576 1434 -421 1052 -532 1328
-553 1375 -35 79 -95 233 -95 243 0 9 -132 12 -545 12 -369 0 -545 -3 -545
-10z m620 -1704 c-18 -45 -48 -113 -66 -153 -19 -40 -34 -78 -34 -85 -1 -20
-22 -43 -57 -61 l-31 -17 64 153 c36 83 75 175 88 202 13 28 27 61 31 74 l8
25 15 -29 c14 -27 12 -34 -18 -109z m55 16 c4 -19 -5 -52 -31 -112 -20 -47
-43 -101 -51 -122 -14 -32 -58 -66 -70 -54 -7 7 131 325 138 320 4 -2 10 -17
14 -32z m32 -79 c8 -23 4 -41 -23 -99 -26 -58 -38 -73 -63 -82 -17 -6 -31 -10
-31 -8 0 5 37 90 66 154 13 29 24 57 24 63 0 18 18 0 27 -28z m31 -100 c-2
-14 -15 -35 -30 -46 -31 -23 -45 -18 -29 10 5 10 18 35 27 56 14 32 19 36 26
23 5 -9 8 -28 6 -43z"/>
<path d="M8940 7222 c-81 -8 -110 -14 -110 -23 0 -6 4 -8 9 -5 17 11 119 20
238 20 68 1 123 5 123 9 0 7 -190 7 -260 -1z"/>
<path d="M9210 7222 c0 -5 13 -9 28 -10 97 -3 318 -47 432 -87 126 -44 336
-146 399 -194 20 -15 63 -48 97 -72 144 -104 307 -274 409 -425 54 -81 163
-301 195 -394 62 -183 91 -336 100 -540 l7 -175 1 145 c0 144 -14 269 -44 385
-9 33 -18 69 -20 79 -31 159 -199 489 -315 621 -15 17 -48 55 -73 85 -26 30
-83 88 -129 128 -277 244 -606 398 -947 442 -47 6 -97 13 -112 16 -16 3 -28 1
-28 -4z"/>
<path d="M8725 7188 c-636 -149 -1120 -594 -1314 -1208 -62 -197 -76 -295 -76
-540 0 -175 6 -237 35 -365 49 -220 144 -438 275 -636 50 -75 108 -143 211
-246 160 -159 291 -252 475 -341 115 -54 360 -137 437 -148 26 -3 56 -8 67
-11 41 -9 213 -19 290 -18 277 6 567 77 783 190 412 218 696 537 865 975 34
88 89 300 81 309 -7 8 -12 -4 -18 -44 -4 -22 -11 -58 -17 -80 -6 -22 -13 -50
-15 -63 -13 -67 -102 -270 -174 -396 -151 -262 -385 -498 -640 -643 -50 -29
-140 -49 -154 -36 -3 3 23 19 57 36 69 34 219 131 287 186 48 39 195 183 247
242 36 41 142 197 170 249 10 19 26 46 35 60 34 51 107 249 137 375 18 72 34
136 36 143 2 6 1 12 -4 12 -4 0 -13 -26 -19 -57 -71 -355 -227 -643 -482 -895
-150 -147 -302 -256 -457 -327 -48 -22 -103 -24 -103 -3 0 4 53 33 119 66 207
101 418 276 556 461 33 44 62 82 66 85 3 3 8 12 12 20 4 8 18 33 32 55 57 91
120 229 153 335 55 177 68 238 77 365 4 50 8 102 10 118 1 15 -2 27 -6 27 -5
0 -9 -26 -9 -58 0 -189 -70 -466 -167 -657 -169 -335 -427 -594 -745 -748 -64
-31 -121 -57 -127 -57 -6 0 -15 9 -20 19 -9 17 -3 22 55 47 64 27 254 130 264
143 3 3 30 25 62 48 56 42 71 55 163 142 59 56 145 161 203 247 46 69 172 314
172 335 0 8 9 37 20 66 10 28 22 64 24 79 3 14 10 50 15 78 24 116 28 145 30
211 1 39 4 82 5 97 2 15 0 25 -4 23 -4 -2 -8 -39 -9 -82 -2 -90 -5 -112 -33
-248 -35 -172 -89 -312 -190 -487 -146 -254 -403 -491 -668 -614 -30 -14 -73
-34 -95 -44 l-40 -19 -12 22 c-10 19 -9 23 10 31 41 15 212 100 237 117 14 9
48 31 75 48 179 114 416 385 504 576 13 28 33 71 46 96 26 52 59 159 52 166
-3 2 -12 -20 -21 -51 -9 -31 -40 -104 -68 -163 -150 -315 -402 -571 -714 -727
-113 -56 -139 -63 -148 -41 -7 20 0 35 18 35 30 0 248 121 336 187 95 70 197
166 261 245 19 23 39 46 45 53 23 22 108 161 145 235 60 119 131 337 128 394
0 11 -9 -13 -18 -54 -69 -293 -194 -513 -422 -743 -59 -58 -206 -171 -269
-206 -35 -19 -164 -85 -170 -86 -3 -1 -13 -5 -22 -8 -38 -15 -48 -16 -48 -8 0
5 -3 16 -6 24 -3 10 3 18 18 22 57 18 192 89 274 144 145 97 238 185 343 325
60 80 157 249 181 316 7 19 20 53 30 75 10 23 21 54 24 70 3 17 12 56 20 89
42 169 41 431 -4 629 -13 58 -60 209 -69 222 -4 6 -18 34 -30 64 -79 189 -288
436 -473 559 -185 124 -419 218 -598 239 -52 6 -52 -3 0 -10 63 -9 206 -46
275 -72 300 -113 562 -332 719 -598 182 -309 234 -596 180 -989 -4 -24 -10
-50 -14 -58 -4 -8 -11 -32 -14 -52 -9 -55 -83 -232 -139 -327 -156 -271 -403
-492 -670 -600 -49 -20 -60 -22 -68 -10 -5 8 -9 17 -9 21 0 3 44 27 98 53 291
139 529 374 655 646 51 109 104 281 120 388 16 101 15 275 -1 406 -34 276
-201 594 -415 789 -208 189 -415 294 -697 352 -44 9 -203 20 -260 18 -138 -4
-263 -23 -379 -59 -44 -14 -55 -14 -62 -3 -14 21 -6 30 37 45 50 18 209 50
301 61 75 9 184 8 255 -2 30 -4 39 -3 31 5 -12 12 -239 16 -313 6 -73 -10
-233 -45 -278 -60 -40 -14 -43 -14 -53 5 -13 24 -16 21 51 44 62 20 64 21 105
29 17 3 36 8 43 10 8 3 37 8 65 11 29 3 58 7 66 10 19 6 260 5 294 -1 15 -3
27 -2 27 3 0 5 -7 9 -15 10 -45 3 -293 2 -310 -2 -11 -2 -42 -7 -69 -10 -27
-4 -52 -9 -55 -11 -3 -1 -23 -6 -44 -9 -21 -3 -67 -16 -104 -27 -54 -18 -67
-19 -74 -8 -12 19 -11 29 4 34 138 43 182 56 214 61 46 7 56 14 20 14 -14 0
-75 -15 -136 -33 -111 -34 -121 -34 -121 4 0 15 55 34 153 54 48 10 87 21 87
25 0 7 -78 -8 -173 -34 -72 -20 -69 -20 -65 6 2 17 14 26 48 36 105 31 166 46
245 57 11 1 39 3 63 4 23 0 42 5 42 11 0 5 -6 8 -12 5 -7 -2 -43 -6 -79 -9
-36 -3 -111 -17 -165 -32 -131 -33 -134 -34 -134 -26 0 10 49 62 58 62 4 0 39
7 77 15 72 16 92 19 210 35 70 9 339 5 405 -6 121 -20 244 -50 320 -79 236
-90 383 -172 537 -302 133 -114 216 -204 306 -337 124 -182 184 -308 241 -502
28 -94 29 -100 41 -174 4 -25 9 -54 12 -65 10 -44 14 -335 6 -407 -5 -43 -6
-78 -2 -78 23 0 22 447 0 530 -5 19 -12 53 -15 75 -4 22 -18 78 -32 125 -121
404 -357 724 -704 957 -41 27 -93 58 -115 68 -22 10 -51 26 -65 35 -14 9 -63
31 -110 49 -47 18 -95 37 -106 41 -26 10 -208 58 -249 65 -198 35 -491 27
-688 -19 -49 -12 -56 -12 -46 1 25 29 70 54 111 61 24 4 39 10 33 13 -5 3 -46
-3 -90 -13z m634 -409 c115 -24 111 -23 185 -49 276 -95 526 -290 688 -536
159 -243 230 -494 222 -785 -5 -204 -56 -399 -152 -580 -74 -142 -127 -214
-237 -324 -132 -132 -224 -198 -390 -279 -85 -41 -105 -48 -105 -37 0 5 -2 16
-6 24 -3 10 12 21 53 38 32 12 79 35 104 51 25 15 49 28 53 28 8 0 90 55 121
81 11 10 40 34 64 54 178 147 347 419 405 650 27 108 44 215 35 221 -5 3 -9
-10 -9 -28 0 -28 -6 -59 -24 -133 -2 -5 -6 -28 -10 -50 -10 -52 -84 -242 -108
-277 -10 -14 -18 -29 -18 -32 0 -9 -91 -142 -127 -186 -76 -93 -238 -239 -302
-271 -14 -8 -51 -28 -82 -46 -88 -51 -161 -77 -170 -61 -15 23 -11 26 79 68
173 81 359 232 475 385 120 158 208 377 235 580 12 91 15 275 5 275 -4 0 -7
-46 -7 -102 2 -105 -7 -202 -26 -273 -6 -22 -12 -49 -14 -60 -3 -11 -18 -57
-35 -102 -114 -307 -321 -533 -631 -689 -77 -39 -86 -41 -97 -27 -7 9 -13 20
-13 23 0 4 34 21 76 40 156 68 339 212 440 345 87 114 186 304 200 382 3 15 7
30 9 33 4 7 29 126 40 188 3 17 2 32 -3 32 -4 0 -8 -10 -9 -22 -3 -42 -25
-153 -40 -203 -93 -315 -315 -582 -603 -725 -101 -50 -116 -55 -124 -34 -8 22
8 37 61 57 106 41 307 188 379 277 16 19 35 42 43 50 8 8 34 46 59 85 128 200
186 403 181 640 -1 66 -6 136 -10 155 -4 19 -10 51 -13 71 -7 47 -57 182 -96
258 -147 292 -408 501 -725 582 -66 16 -126 28 -135 26 -8 -2 3 -7 25 -12 22
-4 65 -14 95 -22 30 -8 66 -16 80 -19 50 -10 248 -114 326 -172 176 -132 312
-319 387 -537 43 -122 52 -189 51 -365 -1 -144 -4 -177 -26 -261 -77 -286
-248 -519 -495 -673 -57 -36 -111 -66 -118 -66 -8 0 -16 -4 -19 -9 -10 -16
-59 -23 -67 -9 -14 22 -11 24 54 53 160 72 346 229 445 377 79 118 139 260
162 383 7 39 14 79 17 90 6 31 4 225 -2 270 -3 22 -18 83 -32 135 -101 372
-381 652 -748 752 -102 27 -154 33 -305 32 -130 0 -168 -6 -317 -50 -14 -4
-23 -2 -23 4 0 6 -2 17 -6 25 -11 31 290 84 425 74 39 -3 71 -1 71 3 0 9 -246
5 -300 -5 -19 -3 -73 -15 -119 -26 -69 -17 -85 -19 -92 -7 -5 7 -9 16 -9 20 0
8 64 28 165 52 33 7 49 14 35 15 -14 0 -65 -11 -115 -24 -88 -24 -111 -22 -99
10 5 13 80 41 134 50 19 3 44 8 55 10 11 2 26 4 33 4 6 1 12 6 12 11 0 7 -6 7
-19 1 -10 -6 -20 -8 -23 -6 -3 4 -97 -18 -177 -41 -21 -6 -40 7 -41 28 0 7 79
35 121 43 87 17 132 29 116 33 -9 2 -32 -1 -50 -7 -17 -6 -48 -13 -67 -16 -19
-3 -54 -13 -78 -22 -47 -17 -47 -17 -56 14 -6 19 -2 23 36 34 24 6 54 15 68
19 46 16 110 26 205 35 38 3 71 7 72 9 10 10 242 -8 322 -25z m-34 -293 c201
-44 375 -139 525 -286 52 -52 150 -173 150 -186 0 -4 15 -32 34 -63 60 -100
113 -277 124 -416 11 -143 -14 -332 -59 -440 -6 -16 -13 -34 -14 -40 -2 -5
-16 -37 -32 -70 -76 -156 -206 -303 -368 -414 -57 -39 -107 -71 -111 -71 -4 0
-27 -10 -51 -21 -48 -23 -48 -23 -56 6 -5 17 7 26 82 62 104 49 233 144 293
215 24 28 50 58 58 67 25 27 96 143 123 202 50 109 84 256 88 379 3 103 -1
160 -12 160 -5 0 -8 -4 -4 -9 8 -14 9 -145 1 -221 -12 -107 -83 -339 -108
-348 -4 -2 -8 -8 -8 -14 0 -11 -62 -111 -86 -138 -120 -137 -185 -193 -299
-257 -106 -59 -135 -69 -146 -52 -13 21 -11 39 6 39 29 0 160 73 230 128 101
80 223 228 273 332 59 124 94 275 94 405 1 170 -23 276 -91 421 -120 251 -310
415 -580 501 -113 36 -120 37 -266 37 -140 0 -202 -8 -312 -40 -17 -5 -23 -2
-23 10 0 9 -7 31 -16 48 -20 39 -19 39 105 68 53 12 101 23 106 25 35 9 282
-5 350 -19z m-40 -113 c410 -93 680 -381 752 -803 17 -103 2 -278 -34 -390
-14 -43 -22 -64 -60 -147 -81 -181 -304 -390 -480 -450 -26 -9 -33 -9 -37 4
-10 25 -7 31 22 42 31 12 133 67 177 96 44 29 176 163 213 216 55 80 100 182
127 284 69 268 15 540 -154 769 -49 66 -171 177 -231 211 -94 52 -137 72 -190
89 -30 10 -71 23 -90 29 -78 25 -410 14 -410 -14 0 -4 23 -1 51 6 47 13 289
14 329 3 8 -3 35 -10 60 -17 123 -34 241 -95 335 -175 86 -74 109 -100 179
-206 93 -141 144 -316 140 -475 -2 -78 -13 -171 -24 -198 -4 -12 -14 -44 -21
-72 -15 -58 -59 -151 -102 -215 -48 -71 -196 -214 -262 -251 -114 -66 -156
-83 -166 -68 -5 8 -9 17 -9 21 0 4 40 27 88 53 103 55 125 70 204 150 53 54
143 168 143 184 0 3 12 31 27 61 33 70 73 210 59 210 -3 0 -14 -34 -24 -75
-34 -142 -105 -264 -220 -378 -72 -71 -111 -99 -217 -154 -59 -31 -65 -32 -72
-16 -11 29 -10 31 48 57 60 28 160 96 209 144 110 106 200 275 221 417 10 66
12 195 4 195 -4 0 -7 -28 -6 -62 2 -82 -10 -157 -36 -238 -24 -69 -87 -190
-122 -229 -85 -96 -205 -190 -290 -225 -32 -13 -41 -14 -48 -4 -15 25 -6 33
75 73 142 69 282 231 336 388 11 31 18 57 16 57 -2 0 1 15 7 33 15 49 17 210
2 285 -40 210 -185 404 -371 497 -98 49 -303 99 -303 74 0 -5 20 -9 44 -9 85
0 289 -80 361 -141 92 -79 173 -185 210 -275 15 -38 31 -78 35 -89 32 -77 34
-252 5 -366 -33 -128 -85 -218 -185 -319 -117 -119 -260 -193 -260 -135 0 8
16 22 36 30 60 25 155 94 211 153 48 52 133 190 133 217 0 7 7 29 16 50 24 59
27 224 4 324 -19 87 -64 190 -101 232 -12 13 -33 39 -47 57 -63 82 -235 181
-353 202 -78 15 -149 20 -149 11 0 -4 22 -7 49 -8 151 -6 306 -77 422 -194 42
-42 84 -91 94 -110 47 -91 57 -114 74 -186 18 -71 22 -223 8 -283 -27 -115
-84 -224 -162 -305 -71 -73 -111 -104 -183 -140 -58 -29 -57 -29 -65 0 -5 17
5 25 55 50 33 17 70 38 82 48 49 40 109 104 122 130 8 15 18 27 22 27 11 0 59
115 76 180 18 72 18 215 -1 288 -32 123 -124 260 -226 335 -51 38 -173 93
-227 102 -64 11 -151 14 -145 5 3 -4 22 -7 42 -6 35 2 63 -2 133 -18 14 -3 63
-24 109 -47 132 -65 241 -190 292 -336 30 -84 34 -237 10 -323 -20 -69 -54
-152 -71 -173 -106 -130 -142 -162 -224 -204 -52 -26 -76 -25 -76 6 0 12 9 21
27 26 36 9 140 83 184 132 48 53 108 180 120 255 11 66 9 197 -3 204 -3 2 -4
-27 -1 -65 12 -158 -49 -315 -164 -421 -72 -66 -163 -116 -175 -97 -14 22 -8
33 27 50 109 52 199 155 240 278 32 94 30 235 -4 319 -27 65 -78 145 -118 181
-66 60 -192 120 -252 118 -14 0 4 -8 40 -18 261 -70 408 -339 326 -594 -18
-56 -53 -118 -97 -170 -26 -32 -136 -107 -161 -109 -18 -2 -25 2 -27 17 -2 16
6 24 31 33 43 16 119 81 156 136 85 124 96 295 29 429 -40 80 -137 166 -227
201 -39 15 -203 36 -191 24 3 -3 38 -8 79 -12 236 -20 408 -244 367 -480 -18
-106 -114 -234 -213 -285 -36 -18 -42 -18 -47 -5 -10 27 -7 33 32 51 61 29
125 100 154 174 44 110 42 199 -9 305 -63 135 -242 220 -389 186 -39 -9 -43
-8 -53 14 -10 23 -8 24 29 30 22 4 40 10 40 14 0 5 -17 4 -37 -2 -31 -8 -39
-7 -50 8 -7 10 -10 21 -6 25 15 12 88 26 141 25 28 -1 52 3 52 8 0 10 -137 1
-171 -13 -21 -7 -28 -5 -37 10 -17 26 -17 26 36 38 191 46 391 -14 513 -154
60 -68 89 -119 109 -188 8 -26 17 -47 21 -47 4 0 1 21 -7 46 -39 130 -149 258
-274 316 -41 20 -93 39 -115 43 -64 12 -207 9 -250 -5 -34 -11 -40 -11 -51 5
-12 16 -11 20 5 31 15 11 88 26 129 27 6 0 12 4 12 9 0 5 -8 7 -17 4 -10 -3
-37 -7 -60 -10 -23 -3 -51 -10 -63 -16 -17 -9 -22 -7 -29 12 -11 30 -3 35 87
50 39 6 72 15 72 19 0 6 -129 -15 -157 -26 -7 -2 -17 4 -23 15 -8 15 -6 21 10
30 11 6 20 8 20 4 0 -3 6 -2 13 4 12 11 89 24 134 24 13 0 20 4 18 8 -6 10
-75 2 -142 -16 -66 -18 -70 -18 -76 6 -4 15 2 21 27 29 45 14 144 31 183 31
18 0 33 4 33 9 0 6 -8 8 -17 7 -22 -4 -137 -18 -140 -17 -2 0 -22 -7 -45 -15
-39 -14 -44 -13 -55 3 -7 9 -13 20 -13 23 0 15 133 43 229 48 191 9 357 -37
511 -141 57 -39 196 -180 225 -228 58 -98 96 -195 116 -299 14 -76 18 -203 8
-242 -4 -16 -4 -28 2 -28 5 0 10 8 10 18 21 292 -59 516 -250 701 -201 194
-497 275 -767 211 -48 -11 -88 -19 -90 -18 -1 2 -4 12 -6 23 -2 15 3 21 22 23
14 2 29 8 35 13 12 12 -1 12 -42 0 -28 -8 -31 -7 -35 14 -4 19 1 25 33 35 116
39 337 50 454 23z m-57 -597 c118 -50 198 -147 220 -267 24 -130 -47 -286
-163 -354 -25 -14 -50 -23 -55 -20 -19 12 -10 33 23 54 75 48 118 102 137 171
44 154 -21 300 -163 365 -28 13 -53 22 -56 20 -6 -7 4 -16 21 -19 38 -8 74
-31 118 -76 109 -112 112 -282 6 -393 -25 -25 -58 -53 -75 -61 -28 -15 -30
-15 -37 6 -5 16 -2 25 11 33 41 23 77 60 99 99 28 48 41 96 26 96 -5 0 -10 -8
-10 -18 0 -29 -49 -115 -78 -139 -47 -36 -62 -33 -79 16 l-15 43 33 34 c78 80
23 205 -91 208 -42 1 -55 31 -18 45 73 27 188 -66 191 -154 1 -19 4 -35 8 -35
13 0 2 68 -18 106 -11 22 -38 52 -60 67 -32 23 -50 28 -96 28 -58 0 -81 16
-70 47 3 6 0 12 -6 12 -6 0 -11 9 -11 20 0 22 47 35 105 28 19 -2 35 0 35 4 0
11 -93 10 -123 -1 -26 -10 -37 1 -37 34 0 30 157 31 228 1z m-59 -236 c27 -14
51 -72 45 -106 -3 -16 -18 -42 -34 -58 -26 -27 -30 -28 -36 -12 -4 11 0 30 10
46 9 16 16 35 16 44 0 20 -44 66 -62 66 -7 0 2 -12 20 -26 33 -27 40 -52 20
-72 -13 -13 -29 -16 -26 -4 3 7 -12 50 -37 109 -13 28 -12 32 3 36 17 3 49 -5
81 -23z"/>
<path d="M8985 6749 c-36 -3 -5 -5 80 -5 245 0 421 -38 610 -132 153 -76 345
-231 448 -362 28 -35 157 -246 157 -256 0 -3 10 -26 21 -52 34 -74 88 -278 89
-334 0 -16 4 -28 10 -28 5 0 8 6 5 13 -2 6 -6 28 -8 47 -27 206 -128 437 -279
635 -55 72 -232 235 -256 235 -6 0 -12 4 -14 8 -1 5 -30 26 -63 47 -220 140
-526 210 -800 184z"/>
<path d="M8972 6692 c-18 -2 -30 -7 -27 -12 3 -5 18 -5 33 -1 31 9 213 7 287
-3 70 -9 231 -51 293 -75 68 -27 254 -130 272 -151 3 -3 23 -19 45 -35 66 -47
193 -184 251 -271 56 -84 144 -263 144 -293 0 -10 3 -21 8 -25 4 -4 7 -11 7
-14 0 -6 9 -42 36 -143 5 -20 9 -50 9 -68 0 -17 4 -31 9 -31 10 0 -11 132 -33
205 -8 28 -20 68 -26 89 -7 22 -29 76 -50 120 -118 249 -297 435 -548 570
-103 55 -194 88 -337 120 -71 17 -283 27 -373 18z"/>
<path d="M9010 6631 c0 -3 42 -7 93 -7 233 -1 427 -56 618 -174 97 -60 92 -56
201 -160 116 -110 210 -249 272 -406 57 -143 76 -233 82 -393 2 -69 7 -127 10
-130 10 -10 1 194 -12 288 -30 201 -153 452 -300 610 -52 57 -185 171 -198
171 -3 0 -22 12 -43 26 -107 73 -292 144 -428 164 -90 14 -295 21 -295 11z"/>
<path d="M8940 6622 c0 -5 14 -7 30 -4 17 2 30 6 30 8 0 2 -13 4 -30 4 -16 0
-30 -4 -30 -8z"/>
<path d="M10393 5550 c-1 -11 2 -20 5 -20 4 0 8 9 9 20 1 11 -2 20 -5 20 -4 0
-8 -9 -9 -20z"/>
<path d="M10398 5473 c5 -76 10 -83 11 -15 0 34 -2 62 -7 62 -4 0 -6 -21 -4
-47z"/>
<path d="M10393 5370 c1 -11 5 -20 9 -20 3 0 6 9 5 20 -1 11 -5 20 -9 20 -3 0
-6 -9 -5 -20z"/>
<path d="M8930 6444 c-75 -13 -170 -43 -138 -44 9 0 29 5 45 11 48 20 171 36
264 35 49 -1 89 3 89 7 0 12 -171 5 -260 -9z"/>
<path d="M9207 6449 c4 -4 31 -10 58 -14 97 -12 144 -27 275 -88 73 -34 160
-88 196 -122 6 -5 27 -24 47 -42 139 -122 284 -386 304 -554 3 -27 9 -49 13
-49 15 0 -21 155 -55 235 -57 138 -102 211 -188 308 -160 178 -373 294 -605
326 -29 4 -49 4 -45 0z"/>
<path d="M9110 6221 c0 -4 16 -8 37 -9 141 -5 309 -69 423 -160 92 -74 164
-159 208 -247 40 -78 82 -208 82 -251 0 -19 4 -34 8 -34 9 0 0 69 -18 140 -19
76 -97 222 -152 285 -90 103 -203 185 -315 226 -29 11 -54 20 -55 19 -2 -1
-16 4 -33 10 -16 6 -55 14 -85 16 -30 3 -65 7 -77 9 -13 2 -23 0 -23 -4z"/>
<path d="M9090 6158 c0 -4 4 -8 9 -8 6 0 12 4 15 8 3 5 -1 9 -9 9 -8 0 -15 -4
-15 -9z"/>
<path d="M9050 5683 c0 -5 27 -7 59 -6 51 1 68 -4 113 -30 60 -36 108 -110
110 -171 1 -20 4 -36 8 -36 4 0 6 18 4 39 -9 117 -114 211 -235 211 -33 0 -59
-3 -59 -7z"/>
<path d="M9267 5396 c-5 -16 -26 -46 -48 -67 -22 -22 -34 -39 -27 -39 27 0 92
89 86 117 -3 13 -6 10 -11 -11z"/>
<path d="M8990 7104 c0 -5 55 -9 123 -9 67 0 147 -4 177 -7 99 -13 133 -18
143 -25 6 -3 7 -1 3 5 -3 6 -28 14 -54 18 -26 3 -56 8 -67 11 -45 9 -325 15
-325 7z"/>
<path d="M9450 7072 c0 -4 33 -16 73 -26 270 -69 531 -219 738 -426 109 -110
230 -266 276 -355 11 -22 30 -58 41 -80 46 -88 90 -205 115 -300 26 -99 30
-123 43 -220 4 -27 8 -57 10 -65 1 -8 3 -39 3 -67 1 -29 5 -53 9 -53 5 0 7 12
6 28 -13 170 -43 336 -85 465 -58 179 -193 419 -313 557 -100 115 -313 300
-344 300 -5 0 -15 7 -23 16 -7 8 -35 28 -62 42 -27 15 -64 35 -81 44 -70 38
-326 132 -356 131 -3 0 -15 3 -27 8 -13 5 -23 5 -23 1z"/>
<path d="M8916 7039 c-43 -5 -81 -11 -85 -15 -3 -4 12 -4 34 0 65 11 386 16
435 7 25 -5 63 -12 85 -15 22 -3 56 -10 75 -16 19 -6 43 -13 53 -15 74 -16
218 -72 310 -120 134 -69 149 -78 211 -124 153 -113 276 -242 393 -410 2 -2 5
-2 8 1 9 9 -121 172 -202 253 -82 81 -129 121 -193 165 -19 13 -37 27 -40 30
-7 9 -128 75 -213 117 -74 37 -130 59 -182 73 -16 5 -64 18 -105 30 -161 46
-377 61 -584 39z"/>
<path d="M8940 6983 c0 -4 82 -8 183 -9 255 -1 418 -37 633 -140 103 -49 249
-139 273 -167 7 -9 19 -17 26 -17 29 0 238 -227 329 -358 41 -59 124 -223 151
-298 9 -27 21 -58 25 -69 34 -85 77 -341 75 -443 -1 -34 2 -62 6 -62 9 0 3
161 -11 245 -28 181 -70 314 -150 478 -119 245 -308 453 -555 613 -147 95
-331 168 -510 204 -33 6 -76 15 -96 19 -49 11 -379 14 -379 4z"/>
<path d="M8870 6971 c0 -5 12 -7 27 -5 39 7 42 14 5 14 -18 0 -32 -4 -32 -9z"/>
<path d="M9310 6910 c19 -4 51 -11 70 -14 63 -9 213 -54 285 -84 89 -37 251
-130 329 -190 222 -167 420 -447 509 -719 38 -118 47 -161 63 -308 6 -59 10
-72 18 -64 3 4 0 33 -19 159 -13 92 -17 107 -45 195 -44 138 -66 189 -127 293
-153 262 -333 439 -579 572 -166 91 -342 150 -479 163 -45 5 -51 4 -25 -3z"/>
<path d="M10440 6317 c0 -5 8 -21 19 -35 31 -45 111 -210 138 -286 44 -125 68
-221 79 -311 4 -27 8 -57 10 -65 1 -8 3 -45 3 -82 1 -38 5 -68 9 -68 12 0 -4
209 -23 290 -3 14 -8 39 -11 55 -11 65 -89 275 -135 365 -47 90 -88 155 -89
137z"/>
<path d="M10575 5510 c3 -5 8 -10 11 -10 2 0 4 5 4 10 0 6 -5 10 -11 10 -5 0
-7 -4 -4 -10z"/>
<path d="M10572 5463 c-1 -14 1 -23 5 -19 10 10 14 46 5 46 -4 0 -9 -12 -10
-27z"/>
<path d="M10750 5460 c0 -5 5 -10 10 -10 6 0 10 5 10 10 0 6 -4 10 -10 10 -5
0 -10 -4 -10 -10z"/>
<path d="M10573 5410 c-1 -11 2 -22 6 -25 5 -2 9 7 9 20 0 30 -13 34 -15 5z"/>
<path d="M10631 5353 c-1 -32 0 -55 3 -53 8 9 15 110 7 110 -4 0 -9 -26 -10
-57z"/>
<path d="M10570 5343 c0 -16 -3 -53 -5 -83 -7 -77 3 -50 13 38 5 39 5 72 0 72
-4 0 -8 -12 -8 -27z"/>
<path d="M3806 5262 c-16 -37 -37 -85 -47 -107 -10 -22 -41 -96 -70 -165 -28
-68 -59 -143 -69 -165 -10 -22 -55 -128 -100 -235 -46 -107 -88 -208 -96 -225
-24 -55 -195 -459 -240 -569 -25 -59 -43 -110 -41 -112 3 -4 17 27 72 161 7
17 24 56 39 88 14 32 26 60 26 63 0 3 9 24 19 47 29 64 139 322 176 412 18 44
42 100 53 125 11 25 56 131 100 235 44 105 110 261 147 348 37 87 65 160 63
162 -2 2 -17 -26 -32 -63z"/>
<path d="M10861 5269 c-1 -28 -6 -61 -11 -74 -5 -14 -6 -27 0 -30 5 -3 11 21
15 52 3 32 8 68 11 81 2 12 1 22 -4 22 -5 0 -9 -23 -11 -51z"/>
<path d="M10616 5223 c-3 -38 -15 -96 -25 -130 -11 -35 -16 -63 -12 -63 9 0
48 161 55 223 2 20 0 37 -4 37 -4 0 -10 -30 -14 -67z"/>
<path d="M3605 4943 c-15 -38 -36 -86 -46 -108 -9 -22 -36 -85 -59 -140 -23
-55 -48 -113 -55 -130 -7 -16 -61 -142 -119 -280 -59 -137 -111 -259 -116
-270 -4 -11 -25 -60 -46 -110 -20 -49 -50 -119 -66 -154 -16 -35 -27 -66 -24
-69 3 -2 15 17 26 44 12 27 28 64 36 81 26 60 41 97 104 248 34 83 70 168 80
190 86 193 321 757 318 761 -3 2 -18 -26 -33 -63z"/>
<path d="M4381 4929 c-12 -33 -59 -146 -81 -194 -10 -22 -34 -80 -54 -130 -21
-49 -48 -114 -62 -143 -13 -29 -24 -55 -24 -58 0 -3 -8 -24 -19 -47 -10 -23
-62 -145 -116 -272 -53 -126 -114 -269 -135 -317 -21 -49 -35 -88 -31 -88 4 0
24 42 45 93 22 50 52 120 67 155 16 35 29 65 29 67 0 3 162 388 204 485 43 98
54 124 75 176 19 51 49 120 76 179 29 62 45 108 40 113 -2 3 -9 -6 -14 -19z"/>
<path d="M3981 4759 c-8 -23 -140 -335 -166 -394 -43 -98 -55 -128 -51 -133 3
-3 10 6 15 19 15 38 190 451 207 487 9 19 13 36 10 39 -3 3 -10 -5 -15 -18z"/>
<path d="M3620 4674 c-6 -16 -47 -112 -90 -214 -348 -817 -337 -790 -327 -790
3 0 16 28 30 63 14 34 37 88 51 119 14 31 26 59 26 62 0 3 11 29 25 58 13 29
33 76 43 103 11 28 34 80 51 118 17 37 31 70 31 72 0 3 9 24 19 48 70 156 161
380 157 384 -3 3 -10 -7 -16 -23z"/>
<path d="M4701 4599 c-10 -27 -93 -222 -121 -284 -78 -177 -271 -638 -268
-641 4 -3 58 118 161 361 16 39 37 88 47 110 10 22 30 69 45 105 27 65 32 76
79 183 14 32 26 60 26 62 0 2 12 29 26 60 15 31 24 58 21 62 -4 3 -11 -5 -16
-18z"/>
<path d="M3695 4083 c-32 -76 -66 -156 -75 -178 -10 -22 -34 -77 -54 -123 -20
-46 -36 -91 -36 -100 0 -9 11 8 23 38 13 30 65 153 116 273 51 120 91 220 89
223 -3 2 -31 -58 -63 -133z"/>
<path d="M3420 3894 c-13 -33 -27 -66 -64 -147 -29 -65 -30 -67 -16 -67 6 0
10 5 10 11 0 6 21 58 46 116 25 58 43 107 40 110 -3 3 -10 -7 -16 -23z"/>
</g>
</svg>
